<?xml version="1.0" standalone="no"?>
<!DOCTYPE svg PUBLIC "-//W3C//DTD SVG 20010904//EN"
 "http://www.w3.org/TR/2001/REC-SVG-20010904/DTD/svg10.dtd">
<svg version="1.0" xmlns="http://www.w3.org/2000/svg"
 width="200.000000pt" height="200.000000pt" viewBox="0 0 200.000000 200.000000"
 preserveAspectRatio="xMidYMid meet">
<metadata>
Created by potrace 1.10, written by Peter Selinger 2001-2011
</metadata>
<g transform="translate(0.000000,200.000000) scale(0.100000,-0.100000)"
fill="#000000" stroke="none">
<path d="M1214 1795 c-13 -13 -24 -32 -24 -42 0 -10 -21 -49 -46 -88 -24 -38
-47 -80 -50 -92 -6 -22 -10 -23 -114 -23 -119 0 -122 1 -139 66 -17 64 -97
163 -150 185 -31 13 -69 -11 -76 -49 -4 -15 -12 -49 -20 -77 -8 -27 -17 -77
-21 -110 -9 -81 -19 -105 -44 -105 -46 0 -80 -30 -115 -100 -19 -38 -35 -75
-35 -82 0 -7 -13 -41 -30 -76 l-29 -62 -28 22 c-15 13 -37 32 -49 44 -32 30
-51 35 -69 18 -18 -19 -6 -48 33 -79 14 -11 36 -30 50 -42 14 -13 29 -23 33
-23 5 0 9 -22 9 -49 0 -27 4 -61 10 -75 l10 -26 -105 0 c-108 0 -141 -12 -129
-45 5 -12 30 -15 124 -15 l119 0 34 -65 35 -65 -54 -31 c-58 -33 -126 -111
-117 -135 11 -29 58 -16 91 25 32 40 118 95 136 87 11 -4 43 -66 100 -191 51
-112 57 -120 93 -143 38 -25 164 -50 304 -59 81 -5 73 -8 239 86 8 4 17 21 20
37 3 16 23 54 46 84 38 51 78 110 113 165 l15 22 46 -46 c25 -25 59 -64 76
-86 35 -49 43 -55 72 -55 33 0 30 50 -5 87 -16 16 -49 52 -74 79 l-46 51 38
31 c36 30 41 32 81 22 75 -17 98 -13 98 14 0 19 -8 27 -37 36 -21 6 -44 13
-50 15 -9 3 -3 21 19 54 l31 51 41 -33 c22 -17 43 -35 44 -39 2 -5 15 -8 28
-8 20 0 24 5 24 29 0 24 -11 38 -59 76 l-58 46 -6 127 c-9 159 -24 217 -84
305 -36 54 -57 74 -90 88 -24 10 -43 25 -43 32 0 8 -19 38 -42 67 -24 30 -56
80 -73 113 -37 74 -65 88 -101 52z m76 -80 c11 -23 34 -62 53 -86 18 -24 43
-60 55 -80 12 -20 36 -42 53 -49 34 -14 86 -75 118 -136 22 -43 38 -142 42
-264 1 -41 7 -87 13 -102 9 -24 7 -30 -17 -48 -32 -26 -57 -70 -57 -102 0 -17
-11 -29 -43 -46 -24 -13 -54 -40 -67 -61 -17 -27 -30 -36 -45 -34 -25 4 -51
-18 -95 -82 -19 -27 -38 -52 -41 -55 -16 -14 -79 -114 -79 -126 0 -8 -4 -14
-10 -14 -5 0 -10 -6 -10 -13 0 -17 -158 -97 -192 -97 -15 0 -53 7 -85 15 -32
9 -89 20 -126 24 -37 5 -79 16 -92 25 -13 9 -38 46 -55 83 -93 201 -126 253
-160 253 -13 0 -21 10 -25 32 -9 40 -50 117 -71 132 -12 10 -16 30 -16 90 0
44 -4 91 -10 107 -8 24 -6 31 20 56 16 15 40 55 52 88 50 136 87 195 123 195
10 0 31 13 46 28 22 22 31 44 41 102 23 137 43 204 64 208 27 6 107 -85 129
-144 9 -27 27 -60 38 -74 20 -24 26 -25 130 -25 95 0 111 2 128 20 29 28 121
176 121 193 0 17 31 43 42 36 5 -3 17 -25 28 -49z"/>
<path d="M675 1657 c-23 -19 -28 -34 -36 -102 -15 -137 -19 -145 -86 -159 -40
-9 -66 -38 -93 -106 -22 -55 -74 -170 -91 -202 -12 -23 -12 -57 1 -94 5 -16
11 -42 14 -59 7 -51 43 -118 90 -167 24 -26 50 -61 58 -78 7 -16 16 -30 20
-30 5 0 8 -9 8 -20 0 -11 5 -20 10 -20 6 0 10 -4 10 -9 0 -5 14 -39 30 -74 16
-36 30 -69 30 -74 0 -4 11 -20 23 -34 27 -30 75 -49 126 -49 20 0 51 -4 70
-10 87 -25 124 -22 197 15 51 25 75 44 87 67 10 18 31 51 47 73 16 22 56 78
88 125 48 70 68 90 111 111 71 36 100 66 151 154 34 61 43 87 47 138 4 63 -7
182 -25 249 -16 62 -71 138 -123 170 -28 17 -60 48 -77 76 -36 58 -89 112
-110 112 -23 0 -88 -74 -95 -108 -12 -57 -25 -62 -175 -62 -169 0 -179 5 -197
100 -5 27 -58 89 -77 90 -4 0 -19 -10 -33 -23z m48 -30 c8 -13 20 -43 27 -66
6 -22 25 -57 42 -76 l30 -35 166 2 165 3 17 31 c10 17 21 45 25 62 3 18 10 32
14 32 4 0 13 11 19 25 6 14 15 25 20 25 5 0 26 -25 48 -56 60 -86 103 -132
126 -136 26 -4 87 -88 100 -138 16 -60 26 -142 27 -221 1 -71 -1 -79 -40 -145
-56 -94 -64 -101 -142 -141 -51 -25 -72 -42 -83 -66 -8 -18 -27 -48 -42 -68
-78 -104 -132 -184 -132 -195 0 -7 -26 -27 -57 -44 -64 -35 -68 -35 -248 -7
-87 13 -125 29 -125 53 0 8 -11 35 -25 60 -14 25 -25 53 -25 62 0 10 -4 22 -9
27 -9 10 -61 98 -82 141 -6 11 -24 28 -39 38 -16 9 -32 26 -36 39 -4 12 -14
33 -24 47 -10 14 -20 43 -24 65 -3 22 -9 58 -12 80 -5 34 0 52 29 108 19 37
38 79 41 95 4 15 18 50 32 78 23 48 27 52 69 58 69 11 81 28 94 131 22 169 25
176 54 132z"/>
<path d="M746 1244 c-9 -8 -16 -24 -16 -34 0 -10 7 -26 16 -34 8 -9 24 -16 34
-16 10 0 26 7 34 16 9 8 16 24 16 34 0 10 -7 26 -16 34 -8 9 -24 16 -34 16
-10 0 -26 -7 -34 -16z"/>
<path d="M1206 1224 c-9 -8 -16 -24 -16 -34 0 -10 7 -26 16 -34 8 -9 24 -16
34 -16 10 0 26 7 34 16 9 8 16 24 16 34 0 10 -7 26 -16 34 -8 9 -24 16 -34 16
-10 0 -26 -7 -34 -16z"/>
<path d="M900 980 c-12 -29 -9 -94 6 -133 9 -24 -7 -21 -50 8 -20 14 -47 27
-59 31 -13 3 -31 18 -41 35 -24 40 -66 41 -66 1 0 -36 25 -70 64 -89 17 -8 49
-25 71 -38 40 -25 137 -35 149 -17 3 5 48 12 100 15 100 7 132 19 142 52 4 11
11 23 15 26 5 3 12 33 15 67 7 61 7 62 -18 62 -23 0 -29 -8 -49 -65 -26 -74
-34 -79 -134 -80 -57 0 -60 1 -63 25 -2 14 -7 49 -13 78 -9 45 -14 52 -33 52
-17 0 -27 -9 -36 -30z m66 -141 c8 -14 -18 -31 -30 -19 -9 9 0 30 14 30 5 0
12 -5 16 -11z"/>
</g>
</svg>
